<svg width="1280" height="720" xmlns="http://www.w3.org/2000/svg" xmlns:xlink="http://www.w3.org/1999/xlink" overflow="hidden"><defs><clipPath id="clip0"><rect x="0" y="0" width="1280" height="720"/></clipPath></defs><g clip-path="url(#clip0)"><rect x="0" y="0" width="1280" height="720" fill="#FFFFFF"/><text font-family="Calibri Light,Calibri Light_MSFontService,sans-serif" font-weight="300" font-size="59" transform="translate(197.68 250)">INSTALLER LE PILOTE ARDUINO NANO <tspan font-size="59" x="89.4533" y="63">(SEULEMENT SI NÉCESSAIRE) : </tspan><tspan fill="#0563C1" font-size="59" x="-87.7333" y="127">https://learn.sparkfun.com/tutorials/how</tspan><tspan fill="#0563C1" font-size="59" x="886.947" y="127">-</tspan><tspan fill="#0563C1" font-size="59" x="904.947" y="127">to</tspan><tspan fill="#0563C1" font-size="59" x="954.373" y="127">-</tspan></text><path d="M109.667 384.6 374.667 384.6 639.667 384.6 904.667 384.6 1169.67 384.6 1169.67 387.6 904.667 387.6 639.667 387.6 374.667 387.6 109.667 387.6Z" fill="#0563C1" fill-rule="evenodd"/><text fill="#0563C1" font-family="Calibri Light,Calibri Light_MSFontService,sans-serif" font-weight="300" font-size="59" transform="translate(364.073 440)">install<tspan font-size="59" x="137.593" y="0">-</tspan>ch340<tspan font-size="59" x="300.093" y="0">-</tspan>drivers/all</text><path d="M363.667 447.6 547.667 447.6 731.667 447.6 915.667 447.6 915.667 450.6 731.667 450.6 547.667 450.6 363.667 450.6Z" fill="#0563C1" fill-rule="evenodd"/></g></svg>